<mxfile host="65bd71144e">
    <diagram id="B38KJdyEP_mGqIDorF1P" name="Page-1">
        <mxGraphModel dx="666" dy="1682" grid="1" gridSize="10" guides="1" tooltips="1" connect="1" arrows="1" fold="1" page="1" pageScale="1" pageWidth="850" pageHeight="1100" math="0" shadow="0">
            <root>
                <mxCell id="0"/>
                <mxCell id="1" parent="0"/>
                <mxCell id="92" style="edgeStyle=none;html=1;exitX=1;exitY=0.3333333333333333;exitDx=0;exitDy=0;exitPerimeter=0;entryX=-0.017;entryY=0.536;entryDx=0;entryDy=0;entryPerimeter=0;" edge="1" parent="1" source="2" target="83">
                    <mxGeometry relative="1" as="geometry"/>
                </mxCell>
                <mxCell id="2" value="Πελάτης" style="shape=umlActor;verticalLabelPosition=bottom;verticalAlign=top;html=1;" parent="1" vertex="1">
                    <mxGeometry x="230" y="60" width="30" height="60" as="geometry"/>
                </mxCell>
                <mxCell id="7" value="" style="edgeStyle=none;html=1;exitX=1.041;exitY=0.498;exitDx=0;exitDy=0;exitPerimeter=0;strokeWidth=1;entryX=-0.013;entryY=0.601;entryDx=0;entryDy=0;entryPerimeter=0;" parent="1" source="48" target="82" edge="1">
                    <mxGeometry relative="1" as="geometry">
                        <mxPoint x="390" y="197" as="sourcePoint"/>
                    </mxGeometry>
                </mxCell>
                <mxCell id="79" value="Επιτυχία" style="edgeStyle=none;html=1;" parent="1" source="6" target="76" edge="1">
                    <mxGeometry relative="1" as="geometry"/>
                </mxCell>
                <mxCell id="86" style="edgeStyle=none;html=1;entryX=1;entryY=1;entryDx=0;entryDy=0;entryPerimeter=0;endArrow=none;endFill=0;" parent="1" source="6" target="66" edge="1">
                    <mxGeometry relative="1" as="geometry"/>
                </mxCell>
                <mxCell id="6" value="Επικοινωνία με υπηρεσία χάρτη" style="ellipse;shape=umlControl;whiteSpace=wrap;html=1;strokeWidth=1;" parent="1" vertex="1">
                    <mxGeometry x="730" y="-80" width="87.5" height="105" as="geometry"/>
                </mxCell>
                <mxCell id="10" value="Χάρτης" style="shape=umlBoundary;whiteSpace=wrap;html=1;" parent="1" vertex="1">
                    <mxGeometry x="1055" y="-67.5" width="100" height="80" as="geometry"/>
                </mxCell>
                <mxCell id="33" style="edgeStyle=none;html=1;strokeColor=default;" parent="1" source="28" target="32" edge="1">
                    <mxGeometry relative="1" as="geometry"/>
                </mxCell>
                <mxCell id="28" value="Ανάκτηση επιλεγμένων συντεταγμένων" style="ellipse;shape=umlControl;whiteSpace=wrap;html=1;" parent="1" vertex="1">
                    <mxGeometry x="727.5" y="130" width="90" height="100" as="geometry"/>
                </mxCell>
                <mxCell id="35" style="edgeStyle=none;html=1;strokeColor=default;entryX=-0.027;entryY=0.5;entryDx=0;entryDy=0;entryPerimeter=0;" parent="1" source="32" target="73" edge="1">
                    <mxGeometry relative="1" as="geometry">
                        <mxPoint x="1096.04" y="183" as="targetPoint"/>
                    </mxGeometry>
                </mxCell>
                <mxCell id="36" value="Ναι" style="edgeLabel;html=1;align=center;verticalAlign=middle;resizable=0;points=[];" parent="35" connectable="0" vertex="1">
                    <mxGeometry x="-0.3849" y="2" relative="1" as="geometry">
                        <mxPoint x="16" y="2" as="offset"/>
                    </mxGeometry>
                </mxCell>
                <mxCell id="51" style="edgeStyle=none;html=1;entryX=0.437;entryY=0.098;entryDx=0;entryDy=0;entryPerimeter=0;strokeColor=#B85450;strokeWidth=2;" parent="1" source="32" target="50" edge="1">
                    <mxGeometry relative="1" as="geometry"/>
                </mxCell>
                <mxCell id="52" value="Όχι" style="edgeLabel;html=1;align=center;verticalAlign=middle;resizable=0;points=[];" parent="51" connectable="0" vertex="1">
                    <mxGeometry x="-0.4302" relative="1" as="geometry">
                        <mxPoint as="offset"/>
                    </mxGeometry>
                </mxCell>
                <mxCell id="32" value="Είναι εντός μιας προκαθορισμένης περιοχής εξυπηρέτησης;" style="ellipse;shape=umlControl;whiteSpace=wrap;html=1;" parent="1" vertex="1">
                    <mxGeometry x="902.5" y="125" width="95" height="110" as="geometry"/>
                </mxCell>
                <mxCell id="48" value="Από άλλη περίπτωση&lt;br&gt;χρήσης" style="text;html=1;align=center;verticalAlign=middle;resizable=0;points=[];autosize=1;strokeColor=none;fillColor=none;strokeWidth=2;" parent="1" vertex="1">
                    <mxGeometry x="175" y="-34" width="140" height="40" as="geometry"/>
                </mxCell>
                <mxCell id="57" style="edgeStyle=none;html=1;strokeColor=#B85450;strokeWidth=2;exitX=-0.011;exitY=0.52;exitDx=0;exitDy=0;exitPerimeter=0;" parent="1" source="50" target="55" edge="1">
                    <mxGeometry relative="1" as="geometry"/>
                </mxCell>
                <mxCell id="50" value="Εμφάνισε" style="ellipse;shape=umlControl;whiteSpace=wrap;html=1;strokeWidth=2;strokeColor=#B85450;" parent="1" vertex="1">
                    <mxGeometry x="910" y="290" width="90" height="100" as="geometry"/>
                </mxCell>
                <mxCell id="60" style="edgeStyle=none;html=1;strokeColor=#B85450;strokeWidth=2;exitX=-0.017;exitY=0.522;exitDx=0;exitDy=0;exitPerimeter=0;entryX=1.022;entryY=0.533;entryDx=0;entryDy=0;entryPerimeter=0;" parent="1" source="55" target="59" edge="1">
                    <mxGeometry relative="1" as="geometry">
                        <mxPoint x="490" y="530" as="targetPoint"/>
                    </mxGeometry>
                </mxCell>
                <mxCell id="55" value="Μήνυμα σφάλματος" style="shape=umlBoundary;whiteSpace=wrap;html=1;strokeWidth=2;strokeColor=#B85450;" parent="1" vertex="1">
                    <mxGeometry x="702.5" y="295" width="115" height="90" as="geometry"/>
                </mxCell>
                <mxCell id="91" style="edgeStyle=none;html=1;entryX=0.526;entryY=0.999;entryDx=0;entryDy=0;entryPerimeter=0;endArrow=classic;endFill=1;strokeColor=#B85450;strokeWidth=2;" parent="1" source="59" target="83" edge="1">
                    <mxGeometry relative="1" as="geometry"/>
                </mxCell>
                <mxCell id="59" value="Εμφάνισε" style="ellipse;shape=umlControl;whiteSpace=wrap;html=1;strokeWidth=2;strokeColor=#B85450;" parent="1" vertex="1">
                    <mxGeometry x="521.25" y="295" width="90" height="90" as="geometry"/>
                </mxCell>
                <mxCell id="66" value="Υπηρεσία χάρτη" style="shape=umlActor;verticalLabelPosition=bottom;verticalAlign=top;html=1;fontSize=11;" parent="1" vertex="1">
                    <mxGeometry x="630" y="-170" width="30" height="60" as="geometry"/>
                </mxCell>
                <mxCell id="73" value="Επιστροφή στην αρχική&lt;br&gt;περίπτωση χρησης" style="text;html=1;align=center;verticalAlign=middle;resizable=0;points=[];autosize=1;strokeColor=none;fillColor=none;" parent="1" vertex="1">
                    <mxGeometry x="1120" y="160" width="150" height="40" as="geometry"/>
                </mxCell>
                <mxCell id="80" value="" style="edgeStyle=none;html=1;" parent="1" source="76" target="10" edge="1">
                    <mxGeometry relative="1" as="geometry"/>
                </mxCell>
                <mxCell id="76" value="Εμφάνισε" style="ellipse;shape=umlControl;whiteSpace=wrap;html=1;" parent="1" vertex="1">
                    <mxGeometry x="910" y="-72.5" width="80" height="90" as="geometry"/>
                </mxCell>
                <mxCell id="84" style="edgeStyle=none;html=1;entryX=-0.031;entryY=0.468;entryDx=0;entryDy=0;entryPerimeter=0;" parent="1" source="82" target="83" edge="1">
                    <mxGeometry relative="1" as="geometry"/>
                </mxCell>
                <mxCell id="82" value="Εμφάνισε" style="ellipse;shape=umlControl;whiteSpace=wrap;html=1;" parent="1" vertex="1">
                    <mxGeometry x="385" y="-67.5" width="80" height="90" as="geometry"/>
                </mxCell>
                <mxCell id="85" value="" style="edgeStyle=none;html=1;" parent="1" source="83" target="6" edge="1">
                    <mxGeometry relative="1" as="geometry"/>
                </mxCell>
                <mxCell id="87" value="Επιλογή τοποθεσίας&lt;br&gt;και &quot;Επιβεβαίωση&quot;" style="edgeStyle=none;html=1;entryX=-0.006;entryY=0.605;entryDx=0;entryDy=0;entryPerimeter=0;" parent="1" source="83" target="28" edge="1">
                    <mxGeometry relative="1" as="geometry"/>
                </mxCell>
                <mxCell id="83" value="Οθόνη &quot;Εισαγωγή Τοποθεσίας&quot;" style="shape=umlBoundary;whiteSpace=wrap;html=1;" parent="1" vertex="1">
                    <mxGeometry x="511.25" y="33" width="100" height="80" as="geometry"/>
                </mxCell>
            </root>
        </mxGraphModel>
    </diagram>
</mxfile>